# xmcd CD database file
#
# Track frame offsets:
#	150
#	15006
#	20060
#	33297
#	39383
#	48791
#	60399
#	85943
#	95928
#	106688
#	133128
#	150455
#	166266
#	181177
#	192033
#	209175
#	230331
#	248039
#	258936
#	275026
#	286203
#	307102
#
# Disc length: 4259 seconds
#
# Revision: 3
# Processed by: cddbd v1.5.2PL0 Copyright (c) Steve Scherf et al.
# Submitted via: CDex 1.51
#
DISCID=2310a116
DTITLE=Rachmaninoff - Historical Recordings - Vol.3
DYEAR=2008
DGENRE=Classique
TTITLE0=Prelude in G minor Op.23, N°5  .....  [Vladimir Horowitz, piano,1931]
TTITLE1=Prelude Op.32, N°01  in C major  .....  [Sviatoslav Richter, piano, 1967]
TTITLE2=Prelude Op.32, N°02  in B flat major
TTITLE3=Prelude Op.32, N°06  in F minor
TTITLE4=Prelude Op.32, N°07  in F major
TTITLE5=Prelude Op.32, N°09  in A major
TTITLE6=Prelude Op.32, N°10  in B minor
TTITLE7=Prelude Op.32, N°12  in G sharp minor
TTITLE8=Disies Op.38, N°03  .....  [Emil Gilels, piano, 1977]
TTITLE9=Vocalise Op.34, N°14
TTITLE10=Prelude Op.03, N°02  in C sharp minor
TTITLE11=Prelude Op.23, N°02  in B flat major
TTITLE12=Prelude Op.23, N°10  in G flat major 
TTITLE13=Prelude Op.32, N°11  in B major 
TTITLE14=Prelude Op.23, N°05  in G minor 
TTITLE15=Moment musical Op.16, N°03  in B minor  .....  Vladimir Sofronitzky, piano, rec.1946]
TTITLE16=Moment musical Op.16, N°05  in D flat major  .....  [rec.1946]
TTITLE17=Étude-tableau Op.33, N°02  in C major  .....  [rec.1951]
TTITLE18=Étude-tableau Op.33, N°08  in G minor  .....  [rec.1946]
TTITLE19=Étude-tableau Op.39, N°04  in B minor  .....  [rec.1946]
TTITLE20=Étude-tableau Op.39, N°05  in E flat minor   [rec.1951]
TTITLE21=Étude-tableau Op.39, N°06  in A minor  .....  [rec.1946]
EXTD=YEAR: 2008
EXTT0=
EXTT1=
EXTT2=
EXTT3=
EXTT4=
EXTT5=
EXTT6=
EXTT7=
EXTT8=
EXTT9=
EXTT10=
EXTT11=
EXTT12=
EXTT13=
EXTT14=
EXTT15=
EXTT16=
EXTT17=
EXTT18=
EXTT19=
EXTT20=
EXTT21=
PLAYORDER=
